<?xml version="1.0" encoding="UTF-8" standalone="no"?>
<!-- Created with Inkscape (http://www.inkscape.org/) -->

<svg
   width="32"
   height="32"
   viewBox="0 0 32 32"
   version="1.1"
   id="svg1"
   inkscape:version="1.4.2 (ebf0e940d0, 2025-05-08)"
   sodipodi:docname="longship_half_simple_32x32_fffff0.svg"
   xmlns:inkscape="http://www.inkscape.org/namespaces/inkscape"
   xmlns:sodipodi="http://sodipodi.sourceforge.net/DTD/sodipodi-0.dtd"
   xmlns="http://www.w3.org/2000/svg"
   xmlns:svg="http://www.w3.org/2000/svg">
  <sodipodi:namedview
     id="namedview1"
     pagecolor="#505050"
     bordercolor="#eeeeee"
     borderopacity="1"
     inkscape:showpageshadow="0"
     inkscape:pageopacity="0"
     inkscape:pagecheckerboard="0"
     inkscape:deskcolor="#505050"
     inkscape:document-units="px"
     inkscape:zoom="4.7784951"
     inkscape:cx="23.0198"
     inkscape:cy="-2.6158864"
     inkscape:window-width="1918"
     inkscape:window-height="1054"
     inkscape:window-x="1920"
     inkscape:window-y="24"
     inkscape:window-maximized="1"
     inkscape:current-layer="layer1" />
  <defs
     id="defs1" />
  <g
     inkscape:label="Layer 1"
     inkscape:groupmode="layer"
     id="layer1">
    <path
       id="path1"
       style="fill:none;fill-opacity:1;stroke:currentColor;stroke-width:1.1;stroke-linecap:round;stroke-dasharray:none;stroke-opacity:1"
       d="m 0.34375431,30.37859 c 0,0 5.88067049,0.250414 25.42252969,0.157719 v 0 c 6.911486,-0.393632 3.47954,-13.028606 3.47954,-13.028606 0,0 -0.0897,6.476231 -4.374837,7.063709 -5.127734,0.702995 -15.7791755,0.938426 -24.62074223,0.70887"
       sodipodi:nodetypes="ccscsc" />
    <path
       style="fill:none;fill-opacity:1;stroke:currentColor;stroke-width:1.1;stroke-dasharray:none;stroke-opacity:1"
       d="M 29.248034,17.519459 28.887363,15.954282"
       id="path3-3" />
    <path
       style="fill:none;fill-opacity:1;stroke:currentColor;stroke-width:1.1;stroke-dasharray:none;stroke-opacity:1"
       d="m 28.888057,15.957499 c 0,0 -1.220449,-5.354146 3.197123,-2.771005"
       id="path4"
       sodipodi:nodetypes="cc" />
    <path
       style="fill:none;fill-opacity:1;stroke:currentColor;stroke-width:1.1;stroke-dasharray:none;stroke-opacity:1"
       d="m 28.769893,14.804379 c 1.633227,-1.299777 2.926199,-0.149717 2.926199,-0.149717"
       id="path5"
       sodipodi:nodetypes="cc" />
    <path
       id="path58"
       style="fill:none;fill-opacity:1;stroke:currentColor;stroke-width:1.1;stroke-dasharray:none;stroke-opacity:1"
       d="m 13.235254,2.9364683 c 0,0 6.950774,3.7283583 1.509905,19.5703117 l 0.807575,-0.0048 2.996094,-0.298828 c 5.774332,-12.3955643 0,-18.5097656 0,-18.5097656 L 15.552734,3.28125 V 3.2793 Z"
       sodipodi:nodetypes="cccccccc" />
    <path
       d="m 7.6368475,2.1941655 c 0,0 5.9021605,6.1182259 0.4036339,21.0894795 L 14.745159,22.50678 C 20.186028,6.664826 13.235254,2.9364683 13.235254,2.9364683 Z"
       style="fill:none;fill-opacity:1;stroke:currentColor;stroke-width:1.1;stroke-dasharray:none;stroke-opacity:1"
       id="path56"
       sodipodi:nodetypes="ccccc" />
    <path
       id="path54"
       style="fill:none;fill-opacity:1;stroke:currentColor;stroke-width:1.1;stroke-dasharray:none;stroke-opacity:1"
       d="m 2.7597656,1.515625 c 0,0 6.1917993,10.040234 -0.5449218,22.320313 L 6.487077,23.455078 8.0404814,23.283645 C 13.539011,8.3123919 7.6368475,2.1941655 7.6368475,2.1941655 L 6.0058594,1.9628906 Z"
       sodipodi:nodetypes="ccccccc" />
    <path
       style="fill:none;fill-opacity:1;stroke:currentColor;stroke-width:1.1;stroke-dasharray:none;stroke-opacity:1"
       d="m 11.078498,22.950237 2e-6,2.384935"
       id="path12" />
    <path
       style="fill:none;fill-opacity:1;stroke:currentColor;stroke-width:1.1;stroke-dasharray:none;stroke-opacity:1"
       d="m 11.061695,2.6608923 -0.01935,-2.91546215"
       id="path13" />
    <path
       style="fill:none;fill-opacity:1;stroke:currentColor;stroke-width:1.1;stroke-linecap:round;stroke-dasharray:none;stroke-opacity:1"
       d="M 19.514512,27.205218 14.596646,32"
       id="path15" />
    <path
       style="fill:none;fill-opacity:1;stroke:currentColor;stroke-width:1.1;stroke-linecap:round;stroke-dasharray:none;stroke-opacity:1"
       d="M 12.870161,27.100583 8.2138832,32"
       id="path16" />
    <path
       style="fill:none;fill-opacity:1;stroke:currentColor;stroke-width:1.1;stroke-linecap:round;stroke-dasharray:none;stroke-opacity:1"
       d="M 6.5920336,27.048265 2.1973445,32"
       id="path17" />
  </g>
</svg>
